<svg xmlns="http://www.w3.org/2000/svg" version="1.1" xmlns:xlink="http://www.w3.org/1999/xlink" xmlns:svgjs="http://svgjs.dev/svgjs" width="1440" height="960" preserveAspectRatio="none" viewBox="0 0 1440 960"><g mask="url(&quot;#SvgjsMask1767&quot;)" fill="none"><rect width="1440" height="960" x="0" y="0" fill="url(&quot;#SvgjsLinearGradient1768&quot;)"></rect><use xlink:href="#SvgjsSymbol1775" x="0" y="0"></use><use xlink:href="#SvgjsSymbol1775" x="0" y="720"></use><use xlink:href="#SvgjsSymbol1775" x="720" y="0"></use><use xlink:href="#SvgjsSymbol1775" x="720" y="720"></use></g><defs><mask id="SvgjsMask1767"><rect width="1440" height="960" fill="#ffffff"></rect></mask><linearGradient x1="50%" y1="0%" x2="50%" y2="100%" gradientUnits="userSpaceOnUse" id="SvgjsLinearGradient1768"><stop stop-color="#0e2a47" offset="0"></stop><stop stop-color="rgba(0, 69, 158, 1)" offset="0.8"></stop></linearGradient><path d="M-1 0 a1 1 0 1 0 2 0 a1 1 0 1 0 -2 0z" id="SvgjsPath1770"></path><path d="M-3 0 a3 3 0 1 0 6 0 a3 3 0 1 0 -6 0z" id="SvgjsPath1771"></path><path d="M-5 0 a5 5 0 1 0 10 0 a5 5 0 1 0 -10 0z" id="SvgjsPath1772"></path><path d="M2 -2 L-2 2z" id="SvgjsPath1773"></path><path d="M6 -6 L-6 6z" id="SvgjsPath1769"></path><path d="M30 -30 L-30 30z" id="SvgjsPath1774"></path></defs><symbol id="SvgjsSymbol1775"><use xlink:href="#SvgjsPath1769" x="30" y="30" stroke="#1c538e"></use><use xlink:href="#SvgjsPath1770" x="30" y="90" stroke="#1c538e"></use><use xlink:href="#SvgjsPath1770" x="30" y="150" stroke="#1c538e"></use><use xlink:href="#SvgjsPath1771" x="30" y="210" stroke="#1c538e"></use><use xlink:href="#SvgjsPath1772" x="30" y="270" stroke="#1c538e"></use><use xlink:href="#SvgjsPath1770" x="30" y="330" stroke="#1c538e"></use><use xlink:href="#SvgjsPath1773" x="30" y="390" stroke="#1c538e"></use><use xlink:href="#SvgjsPath1773" x="30" y="450" stroke="#1c538e"></use><use xlink:href="#SvgjsPath1770" x="30" y="510" stroke="#1c538e"></use><use xlink:href="#SvgjsPath1770" x="30" y="570" stroke="#1c538e"></use><use xlink:href="#SvgjsPath1772" x="30" y="630" stroke="#1c538e"></use><use xlink:href="#SvgjsPath1770" x="30" y="690" stroke="#1c538e"></use><use xlink:href="#SvgjsPath1769" x="90" y="30" stroke="#1c538e"></use><use xlink:href="#SvgjsPath1771" x="90" y="90" stroke="#1c538e"></use><use xlink:href="#SvgjsPath1769" x="90" y="150" stroke="#1c538e"></use><use xlink:href="#SvgjsPath1772" x="90" y="210" stroke="#1c538e"></use><use xlink:href="#SvgjsPath1774" x="90" y="270" stroke="#1c538e" stroke-width="3"></use><use xlink:href="#SvgjsPath1769" x="90" y="330" stroke="#1c538e"></use><use xlink:href="#SvgjsPath1772" x="90" y="390" stroke="#1c538e"></use><use xlink:href="#SvgjsPath1773" x="90" y="450" stroke="#1c538e"></use><use xlink:href="#SvgjsPath1772" x="90" y="510" stroke="#1c538e"></use><use xlink:href="#SvgjsPath1773" x="90" y="570" stroke="#1c538e"></use><use xlink:href="#SvgjsPath1773" x="90" y="630" stroke="#1c538e"></use><use xlink:href="#SvgjsPath1771" x="90" y="690" stroke="#1c538e"></use><use xlink:href="#SvgjsPath1769" x="150" y="30" stroke="#1c538e"></use><use xlink:href="#SvgjsPath1773" x="150" y="90" stroke="#1c538e"></use><use xlink:href="#SvgjsPath1769" x="150" y="150" stroke="#1c538e"></use><use xlink:href="#SvgjsPath1771" x="150" y="210" stroke="#1c538e"></use><use xlink:href="#SvgjsPath1771" x="150" y="270" stroke="#1c538e"></use><use xlink:href="#SvgjsPath1769" x="150" y="330" stroke="#1c538e"></use><use xlink:href="#SvgjsPath1769" x="150" y="390" stroke="#1c538e"></use><use xlink:href="#SvgjsPath1771" x="150" y="450" stroke="#1c538e"></use><use xlink:href="#SvgjsPath1773" x="150" y="510" stroke="#1c538e"></use><use xlink:href="#SvgjsPath1771" x="150" y="570" stroke="#1c538e"></use><use xlink:href="#SvgjsPath1769" x="150" y="630" stroke="#1c538e"></use><use xlink:href="#SvgjsPath1772" x="150" y="690" stroke="#1c538e"></use><use xlink:href="#SvgjsPath1773" x="210" y="30" stroke="#1c538e"></use><use xlink:href="#SvgjsPath1769" x="210" y="90" stroke="#1c538e"></use><use xlink:href="#SvgjsPath1769" x="210" y="150" stroke="#1c538e"></use><use xlink:href="#SvgjsPath1769" x="210" y="210" stroke="#1c538e"></use><use xlink:href="#SvgjsPath1772" x="210" y="270" stroke="#1c538e"></use><use xlink:href="#SvgjsPath1772" x="210" y="330" stroke="#1c538e"></use><use xlink:href="#SvgjsPath1773" x="210" y="390" stroke="#1c538e"></use><use xlink:href="#SvgjsPath1772" x="210" y="450" stroke="#1c538e"></use><use xlink:href="#SvgjsPath1769" x="210" y="510" stroke="#1c538e"></use><use xlink:href="#SvgjsPath1773" x="210" y="570" stroke="#1c538e"></use><use xlink:href="#SvgjsPath1769" x="210" y="630" stroke="#1c538e"></use><use xlink:href="#SvgjsPath1769" x="210" y="690" stroke="#1c538e"></use><use xlink:href="#SvgjsPath1770" x="270" y="30" stroke="#1c538e"></use><use xlink:href="#SvgjsPath1771" x="270" y="90" stroke="#1c538e"></use><use xlink:href="#SvgjsPath1773" x="270" y="150" stroke="#1c538e"></use><use xlink:href="#SvgjsPath1772" x="270" y="210" stroke="#1c538e"></use><use xlink:href="#SvgjsPath1770" x="270" y="270" stroke="#1c538e"></use><use xlink:href="#SvgjsPath1772" x="270" y="330" stroke="#1c538e"></use><use xlink:href="#SvgjsPath1773" x="270" y="390" stroke="#1c538e"></use><use xlink:href="#SvgjsPath1772" x="270" y="450" stroke="#1c538e"></use><use xlink:href="#SvgjsPath1769" x="270" y="510" stroke="#1c538e"></use><use xlink:href="#SvgjsPath1771" x="270" y="570" stroke="#1c538e"></use><use xlink:href="#SvgjsPath1772" x="270" y="630" stroke="#1c538e"></use><use xlink:href="#SvgjsPath1772" x="270" y="690" stroke="#1c538e"></use><use xlink:href="#SvgjsPath1769" x="330" y="30" stroke="#1c538e"></use><use xlink:href="#SvgjsPath1772" x="330" y="90" stroke="#1c538e"></use><use xlink:href="#SvgjsPath1772" x="330" y="150" stroke="#1c538e"></use><use xlink:href="#SvgjsPath1769" x="330" y="210" stroke="#1c538e"></use><use xlink:href="#SvgjsPath1774" x="330" y="270" stroke="#1c538e" stroke-width="3"></use><use xlink:href="#SvgjsPath1773" x="330" y="330" stroke="#1c538e"></use><use xlink:href="#SvgjsPath1769" x="330" y="390" stroke="#1c538e"></use><use xlink:href="#SvgjsPath1774" x="330" y="450" stroke="#1c538e" stroke-width="3"></use><use xlink:href="#SvgjsPath1772" x="330" y="510" stroke="#1c538e"></use><use xlink:href="#SvgjsPath1771" x="330" y="570" stroke="#1c538e"></use><use xlink:href="#SvgjsPath1773" x="330" y="630" stroke="#1c538e"></use><use xlink:href="#SvgjsPath1769" x="330" y="690" stroke="#1c538e"></use><use xlink:href="#SvgjsPath1771" x="390" y="30" stroke="#1c538e"></use><use xlink:href="#SvgjsPath1773" x="390" y="90" stroke="#1c538e"></use><use xlink:href="#SvgjsPath1772" x="390" y="150" stroke="#1c538e"></use><use xlink:href="#SvgjsPath1772" x="390" y="210" stroke="#1c538e"></use><use xlink:href="#SvgjsPath1770" x="390" y="270" stroke="#1c538e"></use><use xlink:href="#SvgjsPath1771" x="390" y="330" stroke="#1c538e"></use><use xlink:href="#SvgjsPath1774" x="390" y="390" stroke="#1c538e" stroke-width="3"></use><use xlink:href="#SvgjsPath1772" x="390" y="450" stroke="#1c538e"></use><use xlink:href="#SvgjsPath1769" x="390" y="510" stroke="#1c538e"></use><use xlink:href="#SvgjsPath1771" x="390" y="570" stroke="#1c538e"></use><use xlink:href="#SvgjsPath1769" x="390" y="630" stroke="#1c538e"></use><use xlink:href="#SvgjsPath1770" x="390" y="690" stroke="#1c538e"></use><use xlink:href="#SvgjsPath1772" x="450" y="30" stroke="#1c538e"></use><use xlink:href="#SvgjsPath1769" x="450" y="90" stroke="#1c538e"></use><use xlink:href="#SvgjsPath1770" x="450" y="150" stroke="#1c538e"></use><use xlink:href="#SvgjsPath1769" x="450" y="210" stroke="#1c538e"></use><use xlink:href="#SvgjsPath1770" x="450" y="270" stroke="#1c538e"></use><use xlink:href="#SvgjsPath1772" x="450" y="330" stroke="#1c538e"></use><use xlink:href="#SvgjsPath1773" x="450" y="390" stroke="#1c538e"></use><use xlink:href="#SvgjsPath1769" x="450" y="450" stroke="#1c538e"></use><use xlink:href="#SvgjsPath1772" x="450" y="510" stroke="#1c538e"></use><use xlink:href="#SvgjsPath1769" x="450" y="570" stroke="#1c538e"></use><use xlink:href="#SvgjsPath1772" x="450" y="630" stroke="#1c538e"></use><use xlink:href="#SvgjsPath1769" x="450" y="690" stroke="#1c538e"></use><use xlink:href="#SvgjsPath1771" x="510" y="30" stroke="#1c538e"></use><use xlink:href="#SvgjsPath1770" x="510" y="90" stroke="#1c538e"></use><use xlink:href="#SvgjsPath1772" x="510" y="150" stroke="#1c538e"></use><use xlink:href="#SvgjsPath1771" x="510" y="210" stroke="#1c538e"></use><use xlink:href="#SvgjsPath1769" x="510" y="270" stroke="#1c538e"></use><use xlink:href="#SvgjsPath1774" x="510" y="330" stroke="#1c538e" stroke-width="3"></use><use xlink:href="#SvgjsPath1772" x="510" y="390" stroke="#1c538e"></use><use xlink:href="#SvgjsPath1773" x="510" y="450" stroke="#1c538e"></use><use xlink:href="#SvgjsPath1769" x="510" y="510" stroke="#1c538e"></use><use xlink:href="#SvgjsPath1769" x="510" y="570" stroke="#1c538e"></use><use xlink:href="#SvgjsPath1772" x="510" y="630" stroke="#1c538e"></use><use xlink:href="#SvgjsPath1772" x="510" y="690" stroke="#1c538e"></use><use xlink:href="#SvgjsPath1769" x="570" y="30" stroke="#1c538e"></use><use xlink:href="#SvgjsPath1771" x="570" y="90" stroke="#1c538e"></use><use xlink:href="#SvgjsPath1772" x="570" y="150" stroke="#1c538e"></use><use xlink:href="#SvgjsPath1770" x="570" y="210" stroke="#1c538e"></use><use xlink:href="#SvgjsPath1769" x="570" y="270" stroke="#1c538e"></use><use xlink:href="#SvgjsPath1772" x="570" y="330" stroke="#1c538e"></use><use xlink:href="#SvgjsPath1769" x="570" y="390" stroke="#1c538e"></use><use xlink:href="#SvgjsPath1772" x="570" y="450" stroke="#1c538e"></use><use xlink:href="#SvgjsPath1772" x="570" y="510" stroke="#1c538e"></use><use xlink:href="#SvgjsPath1769" x="570" y="570" stroke="#1c538e"></use><use xlink:href="#SvgjsPath1773" x="570" y="630" stroke="#1c538e"></use><use xlink:href="#SvgjsPath1769" x="570" y="690" stroke="#1c538e"></use><use xlink:href="#SvgjsPath1769" x="630" y="30" stroke="#1c538e"></use><use xlink:href="#SvgjsPath1772" x="630" y="90" stroke="#1c538e"></use><use xlink:href="#SvgjsPath1770" x="630" y="150" stroke="#1c538e"></use><use xlink:href="#SvgjsPath1770" x="630" y="210" stroke="#1c538e"></use><use xlink:href="#SvgjsPath1769" x="630" y="270" stroke="#1c538e"></use><use xlink:href="#SvgjsPath1772" x="630" y="330" stroke="#1c538e"></use><use xlink:href="#SvgjsPath1773" x="630" y="390" stroke="#1c538e"></use><use xlink:href="#SvgjsPath1769" x="630" y="450" stroke="#1c538e"></use><use xlink:href="#SvgjsPath1769" x="630" y="510" stroke="#1c538e"></use><use xlink:href="#SvgjsPath1772" x="630" y="570" stroke="#1c538e"></use><use xlink:href="#SvgjsPath1769" x="630" y="630" stroke="#1c538e"></use><use xlink:href="#SvgjsPath1769" x="630" y="690" stroke="#1c538e"></use><use xlink:href="#SvgjsPath1773" x="690" y="30" stroke="#1c538e"></use><use xlink:href="#SvgjsPath1772" x="690" y="90" stroke="#1c538e"></use><use xlink:href="#SvgjsPath1769" x="690" y="150" stroke="#1c538e"></use><use xlink:href="#SvgjsPath1773" x="690" y="210" stroke="#1c538e"></use><use xlink:href="#SvgjsPath1774" x="690" y="270" stroke="#1c538e" stroke-width="3"></use><use xlink:href="#SvgjsPath1772" x="690" y="330" stroke="#1c538e"></use><use xlink:href="#SvgjsPath1773" x="690" y="390" stroke="#1c538e"></use><use xlink:href="#SvgjsPath1772" x="690" y="450" stroke="#1c538e"></use><use xlink:href="#SvgjsPath1769" x="690" y="510" stroke="#1c538e"></use><use xlink:href="#SvgjsPath1769" x="690" y="570" stroke="#1c538e"></use><use xlink:href="#SvgjsPath1769" x="690" y="630" stroke="#1c538e"></use><use xlink:href="#SvgjsPath1772" x="690" y="690" stroke="#1c538e"></use></symbol></svg>