<svg xmlns="http://www.w3.org/2000/svg" version="1.1" xmlns:xlink="http://www.w3.org/1999/xlink" xmlns:svgjs="http://svgjs.dev/svgjs" width="1440" height="560" preserveAspectRatio="none" viewBox="0 0 1440 560"><g mask="url(&quot;#SvgjsMask1097&quot;)" fill="none"><rect width="1440" height="560" x="0" y="0" fill="#0e2a47"></rect><path d="M 0,58 C 96,80.4 288,180.4 480,170 C 672,159.6 768,10 960,6 C 1152,2 1344,121.2 1440,150L1440 560L0 560z" fill="rgba(30, 55, 116, 1)"></path><path d="M 0,342 C 48,326.6 144,261.6 240,265 C 336,268.4 384,360 480,359 C 576,358 624,272.4 720,260 C 816,247.6 864,302.4 960,297 C 1056,291.6 1104,224 1200,233 C 1296,242 1392,320.2 1440,342L1440 560L0 560z" fill="#184a7e"></path><path d="M 0,526 C 41.2,499.6 123.6,405.4 206,394 C 288.4,382.6 329.6,458 412,469 C 494.4,480 535.6,441 618,449 C 700.4,457 741.6,509.8 824,509 C 906.4,508.2 947.6,446.8 1030,445 C 1112.4,443.2 1154,507 1236,500 C 1318,493 1399.2,428 1440,410L1440 560L0 560z" fill="#2264ab"></path></g><defs><mask id="SvgjsMask1097"><rect width="1440" height="560" fill="#ffffff"></rect></mask></defs></svg>